STARTFONT 2.1
FONT -FontForge-Tangerine-Book-R-Normal--18-180-72-72-P-66-ISO10646-1
SIZE 18 72 72
FONTBOUNDINGBOX 30 19 -6 -5
COMMENT "Generated by fontforge, http://fontforge.sourceforge.net"
COMMENT "Copyright (c) 2010 by Toshi Omagari. All rights reserved."
STARTPROPERTIES 39
FOUNDRY "FontForge"
FAMILY_NAME "Tangerine"
WEIGHT_NAME "Book"
SLANT "R"
SETWIDTH_NAME "Normal"
ADD_STYLE_NAME ""
PIXEL_SIZE 18
POINT_SIZE 180
RESOLUTION_X 72
RESOLUTION_Y 72
SPACING "P"
AVERAGE_WIDTH 66
CHARSET_REGISTRY "ISO10646"
CHARSET_ENCODING "1"
FONTNAME_REGISTRY ""
CHARSET_COLLECTIONS "ISO10646-1"
FONT_NAME "Tangerine-Regular"
FACE_NAME "Tangerine Regular"
COPYRIGHT "Copyright (c) 2010 by Toshi Omagari. All rights reserved."
FONT_VERSION "1.3"
FONT_ASCENT 13
FONT_DESCENT 5
UNDERLINE_POSITION -2
UNDERLINE_THICKNESS 1
X_HEIGHT 4
CAP_HEIGHT 11
RAW_ASCENT 750
RAW_DESCENT 250
NORM_SPACE 3
RELATIVE_WEIGHT 40
RELATIVE_SETWIDTH 50
SUPERSCRIPT_X 0
SUPERSCRIPT_Y 8
SUPERSCRIPT_SIZE 11
SUBSCRIPT_X 0
SUBSCRIPT_Y 2
SUBSCRIPT_SIZE 11
AVG_LOWERCASE_WIDTH 43
AVG_UPPERCASE_WIDTH 127
ENDPROPERTIES
CHARS 233
STARTCHAR space
ENCODING 32
SWIDTH 150 0
DWIDTH 3 0
BBX 1 1 0 0
BITMAP
00
ENDCHAR
STARTCHAR exclam
ENCODING 33
SWIDTH 189 0
DWIDTH 3 0
BBX 5 9 1 0
BITMAP
08
10
10
10
20
20
40
00
80
ENDCHAR
STARTCHAR quotedbl
ENCODING 34
SWIDTH 214 0
DWIDTH 4 0
BBX 4 2 1 5
BITMAP
F0
A0
ENDCHAR
STARTCHAR numbersign
ENCODING 35
SWIDTH 289 0
DWIDTH 5 0
BBX 6 6 0 0
BITMAP
28
50
7C
50
F8
A0
ENDCHAR
STARTCHAR dollar
ENCODING 36
SWIDTH 269 0
DWIDTH 5 0
BBX 5 8 0 -1
BITMAP
08
38
28
30
30
D0
A0
C0
ENDCHAR
STARTCHAR percent
ENCODING 37
SWIDTH 388 0
DWIDTH 7 0
BBX 7 8 0 -1
BITMAP
06
64
A8
B0
6E
34
4C
80
ENDCHAR
STARTCHAR ampersand
ENCODING 38
SWIDTH 507 0
DWIDTH 9 0
BBX 10 9 0 0
BITMAP
0C00
3400
2800
3000
3180
5A40
9C00
8C00
7B80
ENDCHAR
STARTCHAR quotesingle
ENCODING 39
SWIDTH 120 0
DWIDTH 2 0
BBX 2 2 1 5
BITMAP
40
80
ENDCHAR
STARTCHAR parenleft
ENCODING 40
SWIDTH 250 0
DWIDTH 5 0
BBX 4 14 2 -2
BITMAP
10
20
40
40
40
80
80
80
80
80
80
80
80
80
ENDCHAR
STARTCHAR parenright
ENCODING 41
SWIDTH 276 0
DWIDTH 5 0
BBX 5 14 0 -2
BITMAP
10
10
08
08
08
08
08
10
10
10
20
20
40
80
ENDCHAR
STARTCHAR asterisk
ENCODING 42
SWIDTH 188 0
DWIDTH 3 0
BBX 3 2 1 5
BITMAP
40
E0
ENDCHAR
STARTCHAR plus
ENCODING 43
SWIDTH 301 0
DWIDTH 5 0
BBX 4 5 1 0
BITMAP
20
20
F0
40
40
ENDCHAR
STARTCHAR comma
ENCODING 44
SWIDTH 112 0
DWIDTH 2 0
BBX 2 2 0 -1
BITMAP
40
80
ENDCHAR
STARTCHAR hyphen
ENCODING 45
SWIDTH 245 0
DWIDTH 4 0
BBX 3 1 1 2
BITMAP
E0
ENDCHAR
STARTCHAR period
ENCODING 46
SWIDTH 112 0
DWIDTH 2 0
BBX 1 1 1 0
BITMAP
80
ENDCHAR
STARTCHAR slash
ENCODING 47
SWIDTH 210 0
DWIDTH 4 0
BBX 7 12 0 -1
BITMAP
06
04
08
08
10
20
20
40
40
80
80
80
ENDCHAR
STARTCHAR zero
ENCODING 48
SWIDTH 349 0
DWIDTH 6 0
BBX 5 6 1 0
BITMAP
38
48
88
88
90
E0
ENDCHAR
STARTCHAR one
ENCODING 49
SWIDTH 189 0
DWIDTH 3 0
BBX 3 6 1 0
BITMAP
60
40
40
80
80
80
ENDCHAR
STARTCHAR two
ENCODING 50
SWIDTH 277 0
DWIDTH 5 0
BBX 5 6 0 0
BITMAP
38
48
08
10
60
F8
ENDCHAR
STARTCHAR three
ENCODING 51
SWIDTH 253 0
DWIDTH 5 0
BBX 6 9 -1 -3
BITMAP
3C
04
08
10
28
08
08
90
E0
ENDCHAR
STARTCHAR four
ENCODING 52
SWIDTH 363 0
DWIDTH 7 0
BBX 7 9 1 0
BITMAP
02
04
18
28
50
94
F8
10
20
ENDCHAR
STARTCHAR five
ENCODING 53
SWIDTH 250 0
DWIDTH 5 0
BBX 7 9 -1 -3
BITMAP
1E
20
20
30
18
08
08
90
E0
ENDCHAR
STARTCHAR six
ENCODING 54
SWIDTH 296 0
DWIDTH 5 0
BBX 7 9 1 0
BITMAP
0C
32
40
40
F0
90
90
A0
C0
ENDCHAR
STARTCHAR seven
ENCODING 55
SWIDTH 326 0
DWIDTH 6 0
BBX 7 9 0 -3
BITMAP
3E
44
88
08
10
20
40
40
80
ENDCHAR
STARTCHAR eight
ENCODING 56
SWIDTH 305 0
DWIDTH 5 0
BBX 5 9 1 0
BITMAP
10
68
48
78
70
88
88
88
70
ENDCHAR
STARTCHAR nine
ENCODING 57
SWIDTH 304 0
DWIDTH 5 0
BBX 6 9 -1 -3
BITMAP
1C
24
24
24
2C
38
08
10
E0
ENDCHAR
STARTCHAR colon
ENCODING 58
SWIDTH 156 0
DWIDTH 3 0
BBX 2 5 0 0
BITMAP
40
00
00
00
80
ENDCHAR
STARTCHAR semicolon
ENCODING 59
SWIDTH 156 0
DWIDTH 3 0
BBX 3 7 0 -2
BITMAP
60
00
00
00
80
80
80
ENDCHAR
STARTCHAR less
ENCODING 60
SWIDTH 301 0
DWIDTH 5 0
BBX 4 3 1 1
BITMAP
30
C0
60
ENDCHAR
STARTCHAR equal
ENCODING 61
SWIDTH 301 0
DWIDTH 5 0
BBX 4 3 1 1
BITMAP
F0
00
F0
ENDCHAR
STARTCHAR greater
ENCODING 62
SWIDTH 301 0
DWIDTH 5 0
BBX 4 3 1 1
BITMAP
C0
30
E0
ENDCHAR
STARTCHAR question
ENCODING 63
SWIDTH 285 0
DWIDTH 5 0
BBX 6 9 1 0
BITMAP
18
64
04
08
10
60
40
00
80
ENDCHAR
STARTCHAR at
ENCODING 64
SWIDTH 492 0
DWIDTH 9 0
BBX 7 9 1 -2
BITMAP
1C
62
9A
AA
AA
BE
AC
46
38
ENDCHAR
STARTCHAR A
ENCODING 65
SWIDTH 996 0
DWIDTH 18 0
BBX 17 12 1 0
BITMAP
007E00
008180
010100
010300
000600
000A00
00D200
007E00
804400
808400
830280
7C0300
ENDCHAR
STARTCHAR B
ENCODING 66
SWIDTH 638 0
DWIDTH 11 0
BBX 11 13 1 0
BITMAP
0080
0F80
3660
4420
0820
0840
0B80
10C0
1040
2040
A040
C080
7F00
ENDCHAR
STARTCHAR C
ENCODING 67
SWIDTH 557 0
DWIDTH 10 0
BBX 10 12 1 0
BITMAP
0FC0
3040
4040
4000
8000
8000
8000
8000
8000
C080
4100
3F00
ENDCHAR
STARTCHAR D
ENCODING 68
SWIDTH 799 0
DWIDTH 14 0
BBX 13 12 1 0
BITMAP
0FE0
3040
20A0
4110
0110
0108
0208
0208
0208
0408
F810
F7E0
ENDCHAR
STARTCHAR E
ENCODING 69
SWIDTH 494 0
DWIDTH 9 0
BBX 9 12 1 0
BITMAP
0F80
1080
1000
1800
1C00
2000
4000
8000
8000
8100
8200
7C00
ENDCHAR
STARTCHAR F
ENCODING 70
SWIDTH 626 0
DWIDTH 11 0
BBX 14 12 1 0
BITMAP
03C0
0C3C
1020
0040
0040
0080
07E0
0080
C100
8100
8200
7C00
ENDCHAR
STARTCHAR G
ENCODING 71
SWIDTH 571 0
DWIDTH 10 0
BBX 14 15 -1 -3
BITMAP
0038
00C4
0104
0208
0200
0400
0400
0420
0420
0440
C3C0
8080
8080
C100
7E00
ENDCHAR
STARTCHAR H
ENCODING 72
SWIDTH 865 0
DWIDTH 16 0
BBX 20 13 1 0
BITMAP
000020
07C0D0
088100
108200
110400
010400
010400
1FE800
623C00
820800
840800
881400
F00800
ENDCHAR
STARTCHAR I
ENCODING 73
SWIDTH 554 0
DWIDTH 10 0
BBX 13 12 1 0
BITMAP
0038
00E0
0120
0240
0440
0440
0480
0480
C380
8100
8200
7C00
ENDCHAR
STARTCHAR J
ENCODING 74
SWIDTH 634 0
DWIDTH 11 0
BBX 15 15 0 -3
BITMAP
000E
0038
0048
0090
0090
0110
0110
0120
18F0
6040
8040
8080
8100
C200
7C00
ENDCHAR
STARTCHAR K
ENCODING 75
SWIDTH 936 0
DWIDTH 17 0
BBX 17 12 1 0
BITMAP
03E180
0C4680
105800
10A000
10A000
10C000
00C000
812000
C12000
821000
841000
780F00
ENDCHAR
STARTCHAR L
ENCODING 76
SWIDTH 657 0
DWIDTH 12 0
BBX 12 12 1 0
BITMAP
0070
0090
0110
0100
0200
0200
0200
0200
0400
6800
9C20
F3C0
ENDCHAR
STARTCHAR M
ENCODING 77
SWIDTH 1219 0
DWIDTH 22 0
BBX 23 12 1 0
BITMAP
00FC02
03030C
020218
020630
000450
000C90
401520
802620
804A20
808420
410828
3E0810
ENDCHAR
STARTCHAR N
ENCODING 78
SWIDTH 990 0
DWIDTH 18 0
BBX 22 12 0 0
BITMAP
03F00C
043014
001020
002840
002440
002480
004280
C04280
808100
810100
420100
3C0100
ENDCHAR
STARTCHAR O
ENCODING 79
SWIDTH 606 0
DWIDTH 11 0
BBX 11 12 1 0
BITMAP
0780
18C0
2060
4020
8020
8020
8020
8040
8040
C080
6100
3E00
ENDCHAR
STARTCHAR P
ENCODING 80
SWIDTH 783 0
DWIDTH 14 0
BBX 15 13 1 0
BITMAP
0008
00F8
0324
0442
0842
0842
0042
0184
40D8
8120
8200
8400
7800
ENDCHAR
STARTCHAR Q
ENCODING 81
SWIDTH 563 0
DWIDTH 10 0
BBX 13 15 1 -3
BITMAP
0F00
3080
2040
4040
4040
4040
4080
4080
3900
0200
0C00
F000
1800
0618
01E0
ENDCHAR
STARTCHAR R
ENCODING 82
SWIDTH 854 0
DWIDTH 15 0
BBX 15 13 1 0
BITMAP
0010
00F8
034C
0C44
0084
0084
0088
0170
4140
8220
8220
8430
781E
ENDCHAR
STARTCHAR S
ENCODING 83
SWIDTH 480 0
DWIDTH 9 0
BBX 9 12 1 0
BITMAP
0700
0880
0880
0800
0C00
0400
0600
0200
C200
8200
8400
7800
ENDCHAR
STARTCHAR T
ENCODING 84
SWIDTH 577 0
DWIDTH 10 0
BBX 14 12 1 0
BITMAP
03F0
0C1C
1020
2040
2040
0040
0080
0080
8100
8100
8200
7C00
ENDCHAR
STARTCHAR U
ENCODING 85
SWIDTH 752 0
DWIDTH 14 0
BBX 14 12 1 0
BITMAP
1F04
6208
8408
8408
8810
8810
1030
1060
1060
10A0
1128
0E30
ENDCHAR
STARTCHAR V
ENCODING 86
SWIDTH 661 0
DWIDTH 12 0
BBX 13 12 1 0
BITMAP
3830
C448
8408
8208
8210
0210
0220
0240
0280
0300
0600
0400
ENDCHAR
STARTCHAR W
ENCODING 87
SWIDTH 822 0
DWIDTH 15 0
BBX 16 12 1 0
BITMAP
3803
C421
8241
8242
82C2
02C2
0344
0648
0450
0460
0860
0840
ENDCHAR
STARTCHAR X
ENCODING 88
SWIDTH 813 0
DWIDTH 15 0
BBX 15 12 1 0
BITMAP
020E
0D12
0964
0140
0180
0180
0180
0280
0280
8440
8824
F038
ENDCHAR
STARTCHAR Y
ENCODING 89
SWIDTH 662 0
DWIDTH 12 0
BBX 16 14 0 -2
BITMAP
0181
0682
0082
0104
0104
0108
0208
7210
8260
83A0
8040
8080
4100
3E00
ENDCHAR
STARTCHAR Z
ENCODING 90
SWIDTH 625 0
DWIDTH 11 0
BBX 12 12 1 0
BITMAP
0780
0870
1040
1080
0100
0200
0400
0800
3000
4040
7080
9F00
ENDCHAR
STARTCHAR bracketleft
ENCODING 91
SWIDTH 318 0
DWIDTH 6 0
BBX 7 13 1 -2
BITMAP
1E
10
10
20
20
20
20
40
40
40
40
40
E0
ENDCHAR
STARTCHAR backslash
ENCODING 92
SWIDTH 212 0
DWIDTH 4 0
BBX 2 12 1 -1
BITMAP
80
80
80
80
80
80
80
80
40
40
40
40
ENDCHAR
STARTCHAR bracketright
ENCODING 93
SWIDTH 339 0
DWIDTH 6 0
BBX 7 13 0 -2
BITMAP
0E
04
04
04
08
08
08
08
10
10
10
10
F0
ENDCHAR
STARTCHAR asciicircum
ENCODING 94
SWIDTH 272 0
DWIDTH 5 0
BBX 4 4 1 3
BITMAP
20
60
90
90
ENDCHAR
STARTCHAR underscore
ENCODING 95
SWIDTH 356 0
DWIDTH 6 0
BBX 6 1 0 -1
BITMAP
FC
ENDCHAR
STARTCHAR grave
ENCODING 96
SWIDTH 155 0
DWIDTH 3 0
BBX 2 2 0 5
BITMAP
C0
40
ENDCHAR
STARTCHAR a
ENCODING 97
SWIDTH 294 0
DWIDTH 5 0
BBX 5 5 0 0
BITMAP
38
48
90
B0
D8
ENDCHAR
STARTCHAR b
ENCODING 98
SWIDTH 247 0
DWIDTH 4 0
BBX 10 14 0 0
BITMAP
01C0
0640
0800
0800
1000
1000
2000
2000
2000
5800
6800
D000
9000
E000
ENDCHAR
STARTCHAR c
ENCODING 99
SWIDTH 203 0
DWIDTH 4 0
BBX 4 5 0 0
BITMAP
70
80
80
A0
C0
ENDCHAR
STARTCHAR d
ENCODING 100
SWIDTH 285 0
DWIDTH 5 0
BBX 10 14 1 0
BITMAP
00C0
0100
0200
0400
0400
0800
0800
1000
1000
7000
A000
A000
A000
F000
ENDCHAR
STARTCHAR e
ENCODING 101
SWIDTH 206 0
DWIDTH 4 0
BBX 3 5 1 0
BITMAP
E0
A0
C0
80
E0
ENDCHAR
STARTCHAR f
ENCODING 102
SWIDTH 156 0
DWIDTH 3 0
BBX 14 18 -5 -4
BITMAP
000C
0034
0040
0040
0080
0080
0100
0100
0100
0380
0200
0200
0200
0400
0400
0800
9000
E000
ENDCHAR
STARTCHAR g
ENCODING 103
SWIDTH 210 0
DWIDTH 4 0
BBX 6 9 -2 -4
BITMAP
0C
14
18
10
10
08
C8
88
70
ENDCHAR
STARTCHAR h
ENCODING 104
SWIDTH 292 0
DWIDTH 5 0
BBX 10 14 0 0
BITMAP
01C0
0640
0800
0800
1000
1000
2000
2000
4000
5800
6800
5000
D000
9800
ENDCHAR
STARTCHAR i
ENCODING 105
SWIDTH 149 0
DWIDTH 3 0
BBX 4 8 0 0
BITMAP
10
20
00
40
C0
80
80
C0
ENDCHAR
STARTCHAR j
ENCODING 106
SWIDTH 136 0
DWIDTH 2 0
BBX 9 12 -5 -4
BITMAP
0080
0100
0000
0100
0700
0200
0200
0400
0400
0800
9000
E000
ENDCHAR
STARTCHAR k
ENCODING 107
SWIDTH 259 0
DWIDTH 5 0
BBX 10 14 0 0
BITMAP
00C0
0340
0400
0800
1000
1000
2000
2000
4000
5800
6800
7000
A000
9800
ENDCHAR
STARTCHAR l
ENCODING 108
SWIDTH 134 0
DWIDTH 2 0
BBX 8 14 1 0
BITMAP
03
04
08
10
10
20
20
40
40
40
40
80
80
C0
ENDCHAR
STARTCHAR m
ENCODING 109
SWIDTH 413 0
DWIDTH 7 0
BBX 7 5 0 0
BITMAP
5E
EA
4C
D4
96
ENDCHAR
STARTCHAR n
ENCODING 110
SWIDTH 291 0
DWIDTH 5 0
BBX 5 5 0 0
BITMAP
58
E8
50
90
98
ENDCHAR
STARTCHAR o
ENCODING 111
SWIDTH 225 0
DWIDTH 4 0
BBX 3 5 0 0
BITMAP
60
A0
A0
A0
C0
ENDCHAR
STARTCHAR p
ENCODING 112
SWIDTH 261 0
DWIDTH 5 0
BBX 6 9 -1 -4
BITMAP
3C
24
44
48
70
80
80
80
C0
ENDCHAR
STARTCHAR q
ENCODING 113
SWIDTH 269 0
DWIDTH 5 0
BBX 5 9 0 -4
BITMAP
38
50
90
A0
E0
20
40
40
60
ENDCHAR
STARTCHAR r
ENCODING 114
SWIDTH 195 0
DWIDTH 4 0
BBX 4 5 0 0
BITMAP
D0
60
40
80
80
ENDCHAR
STARTCHAR s
ENCODING 115
SWIDTH 188 0
DWIDTH 3 0
BBX 4 5 0 0
BITMAP
70
40
20
A0
C0
ENDCHAR
STARTCHAR t
ENCODING 116
SWIDTH 171 0
DWIDTH 3 0
BBX 3 7 1 0
BITMAP
20
40
E0
80
80
80
C0
ENDCHAR
STARTCHAR u
ENCODING 117
SWIDTH 299 0
DWIDTH 5 0
BBX 5 5 0 0
BITMAP
48
90
90
B0
D8
ENDCHAR
STARTCHAR v
ENCODING 118
SWIDTH 271 0
DWIDTH 5 0
BBX 5 5 0 0
BITMAP
D8
48
50
50
60
ENDCHAR
STARTCHAR w
ENCODING 119
SWIDTH 369 0
DWIDTH 7 0
BBX 7 5 0 0
BITMAP
D6
52
72
54
98
ENDCHAR
STARTCHAR x
ENCODING 120
SWIDTH 263 0
DWIDTH 5 0
BBX 5 5 0 0
BITMAP
48
58
20
A0
D8
ENDCHAR
STARTCHAR y
ENCODING 121
SWIDTH 280 0
DWIDTH 5 0
BBX 9 9 -4 -4
BITMAP
0480
0900
0900
0B00
0E00
0200
8400
8800
7000
ENDCHAR
STARTCHAR z
ENCODING 122
SWIDTH 238 0
DWIDTH 4 0
BBX 5 5 -1 0
BITMAP
38
50
20
48
F0
ENDCHAR
STARTCHAR braceleft
ENCODING 123
SWIDTH 291 0
DWIDTH 5 0
BBX 6 13 1 -2
BITMAP
0C
10
10
10
10
20
E0
20
20
40
40
40
20
ENDCHAR
STARTCHAR bar
ENCODING 124
SWIDTH 162 0
DWIDTH 3 0
BBX 1 16 1 -4
BITMAP
80
80
80
80
80
80
80
80
80
80
80
80
80
80
80
80
ENDCHAR
STARTCHAR braceright
ENCODING 125
SWIDTH 285 0
DWIDTH 5 0
BBX 5 13 0 -2
BITMAP
18
08
08
08
10
10
08
10
10
10
20
20
C0
ENDCHAR
STARTCHAR asciitilde
ENCODING 126
SWIDTH 383 0
DWIDTH 7 0
BBX 6 2 1 2
BITMAP
6C
B8
ENDCHAR
STARTCHAR space.dup1
ENCODING 160
SWIDTH 150 0
DWIDTH 3 0
BBX 1 1 0 0
BITMAP
00
ENDCHAR
STARTCHAR exclamdown
ENCODING 161
SWIDTH 189 0
DWIDTH 3 0
BBX 4 10 -1 -5
BITMAP
10
10
00
20
20
40
40
40
80
80
ENDCHAR
STARTCHAR cent
ENCODING 162
SWIDTH 194 0
DWIDTH 3 0
BBX 4 8 0 -1
BITMAP
30
50
A0
C0
C0
E0
80
80
ENDCHAR
STARTCHAR sterling
ENCODING 163
SWIDTH 344 0
DWIDTH 6 0
BBX 6 6 0 0
BITMAP
0C
14
20
78
20
FC
ENDCHAR
STARTCHAR currency
ENCODING 164
SWIDTH 344 0
DWIDTH 6 0
BBX 6 6 0 0
BITMAP
44
38
48
48
50
A8
ENDCHAR
STARTCHAR yen
ENCODING 165
SWIDTH 309 0
DWIDTH 6 0
BBX 6 6 0 0
BITMAP
DC
20
F0
20
F0
40
ENDCHAR
STARTCHAR brokenbar
ENCODING 166
SWIDTH 162 0
DWIDTH 3 0
BBX 1 16 1 -4
BITMAP
80
80
80
80
80
80
00
00
00
00
80
80
80
80
80
80
ENDCHAR
STARTCHAR section
ENCODING 167
SWIDTH 395 0
DWIDTH 7 0
BBX 9 13 -1 -4
BITMAP
0780
1C80
1480
1400
1400
1400
1200
0A00
0A00
0A00
8A00
8C00
F800
ENDCHAR
STARTCHAR dieresis
ENCODING 168
SWIDTH 174 0
DWIDTH 3 0
BBX 3 1 0 6
BITMAP
A0
ENDCHAR
STARTCHAR copyright
ENCODING 169
SWIDTH 331 0
DWIDTH 6 0
BBX 5 5 1 2
BITMAP
20
D0
F8
F0
E0
ENDCHAR
STARTCHAR ordfeminine
ENCODING 170
SWIDTH 226 0
DWIDTH 4 0
BBX 3 2 1 4
BITMAP
E0
C0
ENDCHAR
STARTCHAR guillemotleft
ENCODING 171
SWIDTH 289 0
DWIDTH 5 0
BBX 5 5 0 0
BITMAP
38
50
A0
70
50
ENDCHAR
STARTCHAR logicalnot
ENCODING 172
SWIDTH 265 0
DWIDTH 5 0
BBX 4 3 0 2
BITMAP
F0
10
20
ENDCHAR
STARTCHAR registered
ENCODING 174
SWIDTH 331 0
DWIDTH 6 0
BBX 5 5 1 2
BITMAP
70
B0
F8
B0
E0
ENDCHAR
STARTCHAR degree
ENCODING 176
SWIDTH 104 0
DWIDTH 2 0
BBX 3 2 1 5
BITMAP
E0
E0
ENDCHAR
STARTCHAR plusminus
ENCODING 177
SWIDTH 301 0
DWIDTH 5 0
BBX 5 5 0 0
BITMAP
10
20
78
20
F0
ENDCHAR
STARTCHAR twosuperior
ENCODING 178
SWIDTH 215 0
DWIDTH 4 0
BBX 3 3 0 3
BITMAP
60
20
E0
ENDCHAR
STARTCHAR threesuperior
ENCODING 179
SWIDTH 190 0
DWIDTH 3 0
BBX 2 3 1 3
BITMAP
C0
40
C0
ENDCHAR
STARTCHAR acute
ENCODING 180
SWIDTH 157 0
DWIDTH 3 0
BBX 2 2 0 5
BITMAP
40
80
ENDCHAR
STARTCHAR mu
ENCODING 181
SWIDTH 324 0
DWIDTH 6 0
BBX 6 8 0 -3
BITMAP
24
48
48
58
6C
80
80
80
ENDCHAR
STARTCHAR paragraph
ENCODING 182
SWIDTH 392 0
DWIDTH 7 0
BBX 9 10 -2 -4
BITMAP
0380
0F00
1F00
1E00
1E00
0E00
0C00
8C00
9800
F000
ENDCHAR
STARTCHAR periodcentered
ENCODING 183
SWIDTH 112 0
DWIDTH 2 0
BBX 1 1 1 2
BITMAP
80
ENDCHAR
STARTCHAR cedilla
ENCODING 184
SWIDTH 115 0
DWIDTH 2 0
BBX 2 2 0 -2
BITMAP
C0
80
ENDCHAR
STARTCHAR onesuperior
ENCODING 185
SWIDTH 174 0
DWIDTH 3 0
BBX 2 3 1 3
BITMAP
C0
80
80
ENDCHAR
STARTCHAR ordmasculine
ENCODING 186
SWIDTH 178 0
DWIDTH 3 0
BBX 2 3 1 3
BITMAP
C0
C0
80
ENDCHAR
STARTCHAR guillemotright
ENCODING 187
SWIDTH 276 0
DWIDTH 5 0
BBX 5 5 0 0
BITMAP
60
30
38
60
C0
ENDCHAR
STARTCHAR onequarter
ENCODING 188
SWIDTH 435 0
DWIDTH 8 0
BBX 7 7 1 -1
BITMAP
64
48
9E
AC
5C
88
80
ENDCHAR
STARTCHAR onehalf
ENCODING 189
SWIDTH 434 0
DWIDTH 8 0
BBX 6 7 1 -1
BITMAP
64
48
94
BC
44
9C
88
ENDCHAR
STARTCHAR threequarters
ENCODING 190
SWIDTH 476 0
DWIDTH 9 0
BBX 7 7 1 -1
BITMAP
E6
48
32
D4
3A
4C
80
ENDCHAR
STARTCHAR questiondown
ENCODING 191
SWIDTH 285 0
DWIDTH 5 0
BBX 6 10 -1 -5
BITMAP
04
04
00
08
10
20
40
80
90
60
ENDCHAR
STARTCHAR Agrave
ENCODING 192
SWIDTH 996 0
DWIDTH 18 0
BBX 17 13 1 0
BITMAP
000100
007E80
008180
010100
010300
000600
000A00
00D200
007E00
804400
808400
830280
7C0300
ENDCHAR
STARTCHAR Aacute
ENCODING 193
SWIDTH 996 0
DWIDTH 18 0
BBX 18 14 1 0
BITMAP
000040
000080
007E00
008180
010100
010300
000600
000A00
00D200
007E00
804400
808400
830280
7C0300
ENDCHAR
STARTCHAR Acircumflex
ENCODING 194
SWIDTH 996 0
DWIDTH 18 0
BBX 18 14 1 0
BITMAP
0000C0
000100
007E00
008180
010100
010300
000600
000A00
00D200
007E00
804400
808400
830280
7C0300
ENDCHAR
STARTCHAR Atilde
ENCODING 195
SWIDTH 996 0
DWIDTH 18 0
BBX 19 13 1 0
BITMAP
0003E0
007E00
008180
010100
010300
000600
000A00
00D200
007E00
804400
808400
830280
7C0300
ENDCHAR
STARTCHAR Adieresis
ENCODING 196
SWIDTH 996 0
DWIDTH 18 0
BBX 18 13 1 0
BITMAP
000140
007E00
008180
010100
010300
000600
000A00
00D200
007E00
804400
808400
830280
7C0300
ENDCHAR
STARTCHAR Aring
ENCODING 197
SWIDTH 996 0
DWIDTH 18 0
BBX 18 14 1 0
BITMAP
0001C0
000180
007E00
008180
010100
010300
000600
000A00
00D200
007E00
804400
808400
830280
7C0300
ENDCHAR
STARTCHAR AE
ENCODING 198
SWIDTH 1271 0
DWIDTH 23 0
BBX 23 12 1 0
BITMAP
007E3C
0181C2
010140
020760
000A70
001180
00A200
007E00
804200
80820C
830308
FC01F0
ENDCHAR
STARTCHAR Ccedilla
ENCODING 199
SWIDTH 557 0
DWIDTH 10 0
BBX 10 14 1 -2
BITMAP
0FC0
3040
4000
4000
8000
8000
8000
8000
8080
4080
6100
1E00
0800
0800
ENDCHAR
STARTCHAR Egrave
ENCODING 200
SWIDTH 463 0
DWIDTH 8 0
BBX 9 13 0 0
BITMAP
0300
0F80
1080
1000
1800
1C00
2000
4000
8000
8000
8100
8200
7C00
ENDCHAR
STARTCHAR Eacute
ENCODING 201
SWIDTH 463 0
DWIDTH 8 0
BBX 9 13 0 0
BITMAP
0180
0F80
1080
1000
1800
1C00
2000
4000
8000
8000
8100
8200
7C00
ENDCHAR
STARTCHAR Ecircumflex
ENCODING 202
SWIDTH 463 0
DWIDTH 8 0
BBX 9 14 0 0
BITMAP
0300
0480
0F80
1080
1000
1800
1C00
2000
4000
8000
8000
8100
8200
7C00
ENDCHAR
STARTCHAR Edieresis
ENCODING 203
SWIDTH 463 0
DWIDTH 8 0
BBX 9 13 0 0
BITMAP
0280
0D80
1080
1000
1800
1C00
2000
4000
8000
8000
8100
8200
7C00
ENDCHAR
STARTCHAR Igrave
ENCODING 204
SWIDTH 514 0
DWIDTH 9 0
BBX 13 13 0 0
BITMAP
0060
0038
00E0
0120
0240
0440
0440
0480
0480
C380
8100
8200
7C00
ENDCHAR
STARTCHAR Iacute
ENCODING 205
SWIDTH 514 0
DWIDTH 9 0
BBX 13 14 0 0
BITMAP
0030
0040
0038
00E0
0120
0240
0440
0440
0480
0480
C380
8100
8200
7C00
ENDCHAR
STARTCHAR Icircumflex
ENCODING 206
SWIDTH 514 0
DWIDTH 9 0
BBX 13 14 0 0
BITMAP
0030
0040
0038
00E0
0120
0240
0440
0440
0480
0480
C380
8100
8200
7C00
ENDCHAR
STARTCHAR Idieresis
ENCODING 207
SWIDTH 514 0
DWIDTH 9 0
BBX 13 13 0 0
BITMAP
0050
0038
00E0
0120
0240
0440
0440
0480
0480
C380
8100
8200
7C00
ENDCHAR
STARTCHAR Eth
ENCODING 208
SWIDTH 800 0
DWIDTH 14 0
BBX 13 12 1 0
BITMAP
0FE0
30C0
20A0
0110
0110
0108
0F88
0208
0208
0408
7810
F7E0
ENDCHAR
STARTCHAR Ntilde
ENCODING 209
SWIDTH 796 0
DWIDTH 14 0
BBX 22 13 -3 0
BITMAP
000340
03D08C
043014
001020
002840
002440
002480
004280
C04280
808100
810100
420100
3C0100
ENDCHAR
STARTCHAR Ograve
ENCODING 210
SWIDTH 608 0
DWIDTH 11 0
BBX 11 14 1 0
BITMAP
0600
0100
0780
18C0
2060
4020
8020
8020
8020
8040
8040
C080
6100
3E00
ENDCHAR
STARTCHAR Oacute
ENCODING 211
SWIDTH 608 0
DWIDTH 11 0
BBX 11 14 1 0
BITMAP
0300
0000
0780
18C0
2060
4020
8020
8020
8020
8040
8040
C080
6100
3E00
ENDCHAR
STARTCHAR Ocircumflex
ENCODING 212
SWIDTH 608 0
DWIDTH 11 0
BBX 11 14 1 0
BITMAP
0300
0080
0780
18C0
2060
4020
8020
8020
8020
8040
8040
C080
6100
3E00
ENDCHAR
STARTCHAR Otilde
ENCODING 213
SWIDTH 608 0
DWIDTH 11 0
BBX 11 13 1 0
BITMAP
0380
0780
18C0
2060
4020
8020
8020
8020
8040
8040
C080
6100
3E00
ENDCHAR
STARTCHAR Odieresis
ENCODING 214
SWIDTH 608 0
DWIDTH 11 0
BBX 11 14 1 0
BITMAP
0280
0000
0780
18C0
2060
4020
8020
8020
8020
8040
8040
C080
6100
3E00
ENDCHAR
STARTCHAR multiply
ENCODING 215
SWIDTH 301 0
DWIDTH 5 0
BBX 5 5 0 0
BITMAP
48
30
20
50
90
ENDCHAR
STARTCHAR Oslash
ENCODING 216
SWIDTH 605 0
DWIDTH 11 0
BBX 11 12 1 0
BITMAP
0740
19C0
2140
4220
4420
8820
8820
9040
A040
A080
6100
BE00
ENDCHAR
STARTCHAR Ugrave
ENCODING 217
SWIDTH 717 0
DWIDTH 13 0
BBX 15 13 0 0
BITMAP
0060
1F12
6204
8408
8408
8808
8810
1030
1060
1060
10A0
1128
0E30
ENDCHAR
STARTCHAR Uacute
ENCODING 218
SWIDTH 717 0
DWIDTH 13 0
BBX 15 13 0 0
BITMAP
0010
1F22
6204
8408
8408
8808
8810
1030
1060
1060
10A0
1128
0E30
ENDCHAR
STARTCHAR Ucircumflex
ENCODING 219
SWIDTH 718 0
DWIDTH 13 0
BBX 15 14 0 0
BITMAP
0020
0050
1F02
6204
8408
8408
8808
8810
1010
1060
10A0
10A0
1128
0E30
ENDCHAR
STARTCHAR Udieresis
ENCODING 220
SWIDTH 718 0
DWIDTH 13 0
BBX 15 13 0 0
BITMAP
0050
1F02
6204
8408
8408
8808
8810
1030
1060
1060
10A0
1128
0E30
ENDCHAR
STARTCHAR Yacute
ENCODING 221
SWIDTH 662 0
DWIDTH 12 0
BBX 16 15 0 -2
BITMAP
0008
0191
0682
0082
0104
0104
0108
0208
7210
8260
83A0
8040
8080
4100
3E00
ENDCHAR
STARTCHAR Thorn
ENCODING 222
SWIDTH 745 0
DWIDTH 13 0
BBX 14 12 0 0
BITMAP
0008
0010
0020
00F8
034C
0244
0044
4088
8190
81E0
8200
7C00
ENDCHAR
STARTCHAR germandbls
ENCODING 223
SWIDTH 304 0
DWIDTH 5 0
BBX 16 17 -6 -4
BITMAP
000E
0031
0042
0042
0084
0098
0120
0140
0140
0140
0240
0220
04E0
0400
0800
0800
F000
ENDCHAR
STARTCHAR agrave
ENCODING 224
SWIDTH 294 0
DWIDTH 5 0
BBX 5 7 0 0
BITMAP
10
08
38
48
90
B0
D8
ENDCHAR
STARTCHAR aacute
ENCODING 225
SWIDTH 294 0
DWIDTH 5 0
BBX 5 7 0 0
BITMAP
08
10
38
48
90
B0
D8
ENDCHAR
STARTCHAR acircumflex
ENCODING 226
SWIDTH 294 0
DWIDTH 5 0
BBX 5 8 0 0
BITMAP
10
28
00
38
48
90
B0
D8
ENDCHAR
STARTCHAR atilde
ENCODING 227
SWIDTH 294 0
DWIDTH 5 0
BBX 5 7 0 0
BITMAP
18
38
38
48
90
B0
D8
ENDCHAR
STARTCHAR adieresis
ENCODING 228
SWIDTH 284 0
DWIDTH 5 0
BBX 5 7 0 0
BITMAP
28
00
38
48
90
B0
D8
ENDCHAR
STARTCHAR aring
ENCODING 229
SWIDTH 294 0
DWIDTH 5 0
BBX 5 7 0 0
BITMAP
38
10
38
48
90
B0
D8
ENDCHAR
STARTCHAR ae
ENCODING 230
SWIDTH 363 0
DWIDTH 7 0
BBX 7 5 0 0
BITMAP
3C
56
98
90
FC
ENDCHAR
STARTCHAR ccedilla
ENCODING 231
SWIDTH 203 0
DWIDTH 4 0
BBX 4 7 0 -2
BITMAP
70
80
80
A0
C0
40
C0
ENDCHAR
STARTCHAR egrave
ENCODING 232
SWIDTH 206 0
DWIDTH 4 0
BBX 3 7 1 0
BITMAP
40
20
E0
A0
C0
80
E0
ENDCHAR
STARTCHAR eacute
ENCODING 233
SWIDTH 206 0
DWIDTH 4 0
BBX 3 7 1 0
BITMAP
20
40
E0
A0
C0
80
E0
ENDCHAR
STARTCHAR ecircumflex
ENCODING 234
SWIDTH 206 0
DWIDTH 4 0
BBX 3 8 1 0
BITMAP
40
A0
00
E0
A0
C0
80
E0
ENDCHAR
STARTCHAR edieresis
ENCODING 235
SWIDTH 206 0
DWIDTH 4 0
BBX 4 7 1 0
BITMAP
50
00
E0
A0
C0
80
E0
ENDCHAR
STARTCHAR igrave
ENCODING 236
SWIDTH 149 0
DWIDTH 3 0
BBX 3 7 0 0
BITMAP
60
20
40
C0
80
80
C0
ENDCHAR
STARTCHAR iacute
ENCODING 237
SWIDTH 149 0
DWIDTH 3 0
BBX 4 7 0 0
BITMAP
10
20
40
C0
80
80
C0
ENDCHAR
STARTCHAR icircumflex
ENCODING 238
SWIDTH 149 0
DWIDTH 3 0
BBX 4 8 0 0
BITMAP
20
D0
00
40
C0
80
80
C0
ENDCHAR
STARTCHAR idieresis
ENCODING 239
SWIDTH 149 0
DWIDTH 3 0
BBX 4 7 0 0
BITMAP
50
00
40
C0
80
80
C0
ENDCHAR
STARTCHAR eth
ENCODING 240
SWIDTH 234 0
DWIDTH 4 0
BBX 4 12 0 0
BITMAP
C0
80
50
20
E0
10
10
30
D0
90
A0
C0
ENDCHAR
STARTCHAR ntilde
ENCODING 241
SWIDTH 291 0
DWIDTH 5 0
BBX 5 7 0 0
BITMAP
18
38
58
E8
50
90
98
ENDCHAR
STARTCHAR ograve
ENCODING 242
SWIDTH 225 0
DWIDTH 4 0
BBX 4 7 0 0
BITMAP
30
10
60
A0
A0
A0
C0
ENDCHAR
STARTCHAR oacute
ENCODING 243
SWIDTH 225 0
DWIDTH 4 0
BBX 5 7 0 0
BITMAP
08
30
60
A0
A0
A0
C0
ENDCHAR
STARTCHAR ocircumflex
ENCODING 244
SWIDTH 225 0
DWIDTH 4 0
BBX 5 8 0 0
BITMAP
20
58
00
60
A0
A0
A0
C0
ENDCHAR
STARTCHAR otilde
ENCODING 245
SWIDTH 225 0
DWIDTH 4 0
BBX 5 7 0 0
BITMAP
28
50
60
A0
A0
A0
C0
ENDCHAR
STARTCHAR odieresis
ENCODING 246
SWIDTH 225 0
DWIDTH 4 0
BBX 5 7 0 0
BITMAP
28
00
60
A0
A0
A0
C0
ENDCHAR
STARTCHAR divide
ENCODING 247
SWIDTH 301 0
DWIDTH 5 0
BBX 4 5 1 0
BITMAP
20
00
F0
00
40
ENDCHAR
STARTCHAR oslash
ENCODING 248
SWIDTH 225 0
DWIDTH 4 0
BBX 4 6 0 0
BITMAP
10
30
50
F0
A0
C0
ENDCHAR
STARTCHAR ugrave
ENCODING 249
SWIDTH 299 0
DWIDTH 5 0
BBX 5 7 0 0
BITMAP
10
08
48
90
90
B0
D8
ENDCHAR
STARTCHAR uacute
ENCODING 250
SWIDTH 299 0
DWIDTH 5 0
BBX 5 7 0 0
BITMAP
08
10
48
90
90
B0
D8
ENDCHAR
STARTCHAR ucircumflex
ENCODING 251
SWIDTH 299 0
DWIDTH 5 0
BBX 5 8 0 0
BITMAP
10
28
00
48
90
90
B0
D8
ENDCHAR
STARTCHAR udieresis
ENCODING 252
SWIDTH 299 0
DWIDTH 5 0
BBX 5 7 0 0
BITMAP
28
00
48
90
90
B0
D8
ENDCHAR
STARTCHAR yacute
ENCODING 253
SWIDTH 280 0
DWIDTH 5 0
BBX 10 11 -4 -4
BITMAP
00C0
0100
0480
0900
0900
0B00
0E00
0200
8400
8800
7000
ENDCHAR
STARTCHAR thorn
ENCODING 254
SWIDTH 261 0
DWIDTH 5 0
BBX 6 13 -1 -4
BITMAP
18
08
10
10
1C
24
44
48
70
80
80
80
C0
ENDCHAR
STARTCHAR ydieresis
ENCODING 255
SWIDTH 280 0
DWIDTH 5 0
BBX 9 11 -4 -4
BITMAP
0280
0000
0480
0900
0900
0B00
0E00
0200
8400
8800
7000
ENDCHAR
STARTCHAR dotlessi
ENCODING 305
SWIDTH 149 0
DWIDTH 3 0
BBX 2 5 0 0
BITMAP
40
C0
80
80
C0
ENDCHAR
STARTCHAR Lslash
ENCODING 321
SWIDTH 657 0
DWIDTH 12 0
BBX 12 12 1 0
BITMAP
0070
0090
0110
0100
0200
0380
0E00
0200
0400
6400
9C20
F3C0
ENDCHAR
STARTCHAR lslash
ENCODING 322
SWIDTH 134 0
DWIDTH 2 0
BBX 8 14 1 0
BITMAP
03
04
08
10
10
28
70
40
40
40
80
80
80
C0
ENDCHAR
STARTCHAR OE
ENCODING 338
SWIDTH 827 0
DWIDTH 15 0
BBX 15 12 1 0
BITMAP
07BE
18C2
2040
4060
8030
80C0
8100
8200
8200
C204
6208
3DF0
ENDCHAR
STARTCHAR oe
ENCODING 339
SWIDTH 345 0
DWIDTH 6 0
BBX 6 5 0 0
BITMAP
6C
94
A8
A0
DC
ENDCHAR
STARTCHAR Scaron
ENCODING 352
SWIDTH 480 0
DWIDTH 9 0
BBX 9 14 1 0
BITMAP
0780
0000
0700
0880
0880
0800
0C00
0400
0600
0200
C200
8200
8400
7800
ENDCHAR
STARTCHAR scaron
ENCODING 353
SWIDTH 188 0
DWIDTH 3 0
BBX 5 8 0 0
BITMAP
38
10
00
70
40
20
A0
C0
ENDCHAR
STARTCHAR Ydieresis
ENCODING 376
SWIDTH 662 0
DWIDTH 12 0
BBX 16 15 0 -2
BITMAP
0028
0181
0682
0082
0104
0104
0108
0208
7210
8260
83A0
8040
8080
4100
3E00
ENDCHAR
STARTCHAR Zcaron
ENCODING 381
SWIDTH 625 0
DWIDTH 11 0
BBX 12 14 1 0
BITMAP
01C0
0000
0780
0870
1040
1080
0100
0200
0400
0800
3000
4040
7080
9F00
ENDCHAR
STARTCHAR zcaron
ENCODING 382
SWIDTH 248 0
DWIDTH 4 0
BBX 6 8 -1 0
BITMAP
0C
08
00
38
50
20
48
F0
ENDCHAR
STARTCHAR florin
ENCODING 402
SWIDTH 214 0
DWIDTH 4 0
BBX 6 8 -1 -2
BITMAP
0C
10
20
38
60
20
40
80
ENDCHAR
STARTCHAR circumflex
ENCODING 710
SWIDTH 196 0
DWIDTH 4 0
BBX 3 2 0 6
BITMAP
40
A0
ENDCHAR
STARTCHAR caron
ENCODING 711
SWIDTH 196 0
DWIDTH 4 0
BBX 3 2 1 6
BITMAP
E0
40
ENDCHAR
STARTCHAR breve
ENCODING 728
SWIDTH 198 0
DWIDTH 4 0
BBX 3 2 0 6
BITMAP
A0
60
ENDCHAR
STARTCHAR dotaccent
ENCODING 729
SWIDTH 89 0
DWIDTH 2 0
BBX 1 1 0 6
BITMAP
80
ENDCHAR
STARTCHAR ring
ENCODING 730
SWIDTH 117 0
DWIDTH 2 0
BBX 2 2 0 5
BITMAP
C0
C0
ENDCHAR
STARTCHAR ogonek
ENCODING 731
SWIDTH 124 0
DWIDTH 2 0
BBX 2 2 0 -2
BITMAP
C0
C0
ENDCHAR
STARTCHAR tilde
ENCODING 732
SWIDTH 222 0
DWIDTH 4 0
BBX 4 2 0 5
BITMAP
70
A0
ENDCHAR
STARTCHAR hungarumlaut
ENCODING 733
SWIDTH 253 0
DWIDTH 5 0
BBX 4 2 0 5
BITMAP
50
A0
ENDCHAR
STARTCHAR mu.dup2
ENCODING 956
SWIDTH 324 0
DWIDTH 6 0
BBX 6 8 0 -3
BITMAP
24
48
48
58
6C
80
80
80
ENDCHAR
STARTCHAR endash
ENCODING 8211
SWIDTH 500 0
DWIDTH 9 0
BBX 9 1 0 2
BITMAP
FF80
ENDCHAR
STARTCHAR emdash
ENCODING 8212
SWIDTH 1000 0
DWIDTH 18 0
BBX 18 1 0 2
BITMAP
FFFFC0
ENDCHAR
STARTCHAR quoteleft
ENCODING 8216
SWIDTH 87 0
DWIDTH 2 0
BBX 2 2 1 5
BITMAP
C0
80
ENDCHAR
STARTCHAR quoteright
ENCODING 8217
SWIDTH 87 0
DWIDTH 2 0
BBX 2 2 1 5
BITMAP
40
80
ENDCHAR
STARTCHAR quotesinglbase
ENCODING 8218
SWIDTH 112 0
DWIDTH 2 0
BBX 2 2 0 -1
BITMAP
C0
80
ENDCHAR
STARTCHAR quotedblleft
ENCODING 8220
SWIDTH 167 0
DWIDTH 2 0
BBX 3 2 1 5
BITMAP
A0
C0
ENDCHAR
STARTCHAR quotedblright
ENCODING 8221
SWIDTH 167 0
DWIDTH 3 0
BBX 3 2 1 5
BITMAP
60
A0
ENDCHAR
STARTCHAR quotedblbase
ENCODING 8222
SWIDTH 192 0
DWIDTH 3 0
BBX 3 2 0 -1
BITMAP
60
C0
ENDCHAR
STARTCHAR dagger
ENCODING 8224
SWIDTH 185 0
DWIDTH 3 0
BBX 4 11 0 -2
BITMAP
20
20
40
F0
40
40
80
80
80
80
80
ENDCHAR
STARTCHAR daggerdbl
ENCODING 8225
SWIDTH 185 0
DWIDTH 3 0
BBX 5 11 -1 -2
BITMAP
10
10
20
78
20
40
40
F0
40
80
80
ENDCHAR
STARTCHAR bullet
ENCODING 8226
SWIDTH 207 0
DWIDTH 4 0
BBX 2 2 1 2
BITMAP
C0
C0
ENDCHAR
STARTCHAR ellipsis
ENCODING 8230
SWIDTH 376 0
DWIDTH 7 0
BBX 5 1 1 0
BITMAP
A8
ENDCHAR
STARTCHAR perthousand
ENCODING 8240
SWIDTH 571 0
DWIDTH 10 0
BBX 10 8 0 -1
BITMAP
0600
6400
A800
B000
6FC0
3540
4D80
8000
ENDCHAR
STARTCHAR guilsinglleft
ENCODING 8249
SWIDTH 189 0
DWIDTH 3 0
BBX 3 5 0 0
BITMAP
20
40
80
80
40
ENDCHAR
STARTCHAR guilsinglright
ENCODING 8250
SWIDTH 176 0
DWIDTH 3 0
BBX 3 5 -1 0
BITMAP
40
20
20
40
80
ENDCHAR
STARTCHAR fraction
ENCODING 8260
SWIDTH 220 0
DWIDTH 4 0
BBX 6 7 0 -1
BITMAP
0C
10
10
20
40
80
80
ENDCHAR
STARTCHAR Euro
ENCODING 8364
SWIDTH 360 0
DWIDTH 6 0
BBX 6 6 0 0
BITMAP
3C
40
70
C0
F0
78
ENDCHAR
STARTCHAR trademark
ENCODING 8482
SWIDTH 389 0
DWIDTH 7 0
BBX 6 3 1 3
BITMAP
FC
B8
DC
ENDCHAR
STARTCHAR minus
ENCODING 8722
SWIDTH 301 0
DWIDTH 5 0
BBX 4 1 1 2
BITMAP
F0
ENDCHAR
STARTCHAR fi
ENCODING 64257
SWIDTH 297 0
DWIDTH 5 0
BBX 14 18 -5 -4
BITMAP
001C
0024
0040
0080
0080
0100
0120
0140
0100
03C0
0280
0280
0280
04C0
0400
0800
9000
E000
ENDCHAR
STARTCHAR fl
ENCODING 64258
SWIDTH 290 0
DWIDTH 5 0
BBX 17 18 -6 -4
BITMAP
000580
001A00
002400
002800
004800
005000
009000
00A000
00A000
01E000
034000
014000
024000
026000
040000
040000
880000
F00000
ENDCHAR
STARTCHAR .notdef
ENCODING -1
SWIDTH 150 0
DWIDTH 3 0
BBX 1 1 0 0
BITMAP
00
ENDCHAR
STARTCHAR .null
ENCODING -1
SWIDTH 0 0
DWIDTH 0 0
BBX 1 1 0 0
BITMAP
00
ENDCHAR
STARTCHAR nonmarkingreturn
ENCODING -1
SWIDTH 150 0
DWIDTH 3 0
BBX 1 1 0 0
BITMAP
00
ENDCHAR
ENDFONT
